<?xml version="1.0" encoding="UTF-8"?>
<svg id="katman_1" data-name="katman 1" xmlns="http://www.w3.org/2000/svg" viewBox="0 0 148.53 52.88">
  <defs>
    <style>
      .cls-1 {
        fill: #f9ac1a;
      }
    </style>
  </defs>
  <g>
    <path class="cls-1" d="M12.91,15.62h-.41c.14-.03.28-.03.41,0Z"/>
    <path class="cls-1" d="M26.19,0C15.59,0,6.1,6.38,2.01,16.26c-1.34,3.23-2.01,6.66-2.01,10.18,0,14.58,11.75,26.44,26.19,26.44s26.19-11.86,26.19-26.44S40.62,0,26.19,0ZM2.08,26.44c0-3.02.54-5.95,1.6-8.74h8.6s7.63,8.27,7.63,8.27l-7.89,9.16s-.07.09-.1.15l-8.15.09c-1.08-2.77-1.68-5.78-1.68-8.93ZM30.23,25.97l-7.13-8.28h4.19s3.63.1,5.83,4.35c.02.04,1.94,3.85.6,7.65-.62,1.76-2.24,4.79-6.14,5.41l-4.09.05,6.73-7.82c.33-.39.33-.97,0-1.35ZM27.68,37.17s.1,0,.14-.01c5.01-.76,7.07-4.58,7.84-6.78,1.65-4.67-.62-9.12-.71-9.3-2.77-5.34-7.44-5.46-7.65-5.46h-5.99s-3.35-3.89-3.35-3.89l6.36.09h.05c4.75-.15,8.18,1.61,8.22,1.63,3.32,1.73,5.71,4.3,7.12,7.64,1.06,2.52,1.13,4.57,1.13,4.59,0,.02,0,.04,0,.05.3,3.88-.82,7.33-3.34,10.25-.05.06-.08.1-.12.17-.08.13-1.26,1.87-5.39,3.64-1.43.61-4.08,1-6.76.97l-6.52-.04,2.98-3.46,5.98-.07ZM28.08,26.65l-7.34,8.53-6.08.07,7.42-8.62c.34-.4.33-.99-.02-1.38l-6.96-7.55h5.27s7.71,8.95,7.71,8.95ZM26.19,50.81c-9.38,0-17.53-5.44-21.51-13.37l14.26-.16-3.25,3.77c-.26.31-.33.74-.16,1.11.17.37.53.6.94.61l8.76.06c.08,0,.17,0,.25,0,1.45,0,2.87-.11,4.14-.3,1.27-.2,2.38-.48,3.2-.84,4.49-1.93,5.98-3.91,6.31-4.42,2.8-3.29,4.11-7.32,3.78-11.67-.02-.68-.49-9.37-9.36-13.98-.16-.08-3.92-2.03-9.22-1.86l-8.57-.12c-.39,0-.77.22-.94.58-.18.36-.14.79.11,1.1l.64.82s.02.03.03.04l2.98,3.46h-5.66s-.42,0-.42,0h-7.92C8.63,7.35,16.95,2.08,26.19,2.08c13.29,0,24.11,10.93,24.11,24.36s-10.81,24.36-24.11,24.36Z"/>
  </g>
  <path class="cls-1" d="M75.52,7.64h-14.48v23.54h14.48c5.76,0,10.43-4.67,10.43-10.43v-2.68c0-5.76-4.67-10.43-10.43-10.43ZM81.37,20.27c0,3.51-2.84,6.35-6.35,6.35h-8.95v-14.29h8.95c3.51,0,6.35,2.84,6.35,6.35v1.6Z"/>
  <rect class="cls-1" x="89.37" y="7.64" width="4.86" height="23.54"/>
  <polygon class="cls-1" points="98.03 7.64 98.03 31.18 103.43 31.18 103.43 12.92 118.44 12.92 118.44 7.64 98.03 7.64"/>
  <rect class="cls-1" x="105.74" y="17.29" width="11.69" height="4.7"/>
  <path class="cls-1" d="M138.31,7.64h-8.09c-5.64,0-10.22,4.58-10.22,10.22v3.84c0,5.64,4.58,10.22,10.22,10.22h8.09c5.64,0,10.22-4.58,10.22-10.22v-3.84c0-5.64-4.58-10.22-10.22-10.22ZM144.32,20.32c0,3.35-2.71,6.06-6.06,6.06h-7.33c-3.35,0-6.06-2.71-6.06-6.06v-1.35c0-3.35,2.71-6.06,6.06-6.06h7.33c3.35,0,6.06,2.71,6.06,6.06v1.35Z"/>
  <path class="cls-1" d="M62.44,34.13h5.83v1.17h-4.44v3.6h4.1v1.16h-4.1v4.9h-1.4v-10.83Z"/>
  <path class="cls-1" d="M76.05,34.13v10.83h-1.4v-10.83h1.4Z"/>
  <path class="cls-1" d="M83.42,44.97v-10.83h1.53l3.47,5.48c.8,1.27,1.43,2.41,1.94,3.52l.03-.02c-.13-1.45-.16-2.76-.16-4.45v-4.53h1.32v10.83h-1.41l-3.44-5.5c-.76-1.21-1.48-2.44-2.02-3.62l-.05.02c.08,1.37.11,2.67.11,4.47v4.63h-1.32Z"/>
  <path class="cls-1" d="M99.01,41.56l-1.12,3.41h-1.45l3.68-10.83h1.69l3.7,10.83h-1.49l-1.16-3.41h-3.84ZM102.56,40.47l-1.06-3.12c-.24-.71-.4-1.35-.56-1.98h-.03c-.16.64-.34,1.3-.55,1.96l-1.06,3.13h3.26Z"/>
  <path class="cls-1" d="M110.38,44.97v-10.83h1.53l3.47,5.48c.8,1.27,1.43,2.41,1.94,3.52l.03-.02c-.13-1.45-.16-2.76-.16-4.45v-4.53h1.32v10.83h-1.41l-3.44-5.5c-.76-1.21-1.48-2.44-2.02-3.62l-.05.02c.08,1.37.11,2.67.11,4.47v4.63h-1.32Z"/>
  <path class="cls-1" d="M130.82,44.62c-.51.26-1.54.51-2.86.51-3.05,0-5.35-1.93-5.35-5.48s2.3-5.69,5.66-5.69c1.35,0,2.2.29,2.57.48l-.34,1.14c-.53-.26-1.29-.45-2.19-.45-2.54,0-4.23,1.62-4.23,4.47,0,2.65,1.53,4.35,4.16,4.35.85,0,1.72-.18,2.28-.45l.29,1.11Z"/>
  <path class="cls-1" d="M141.45,39.87h-4.03v3.74h4.49v1.12h-5.83v-10.36h5.6v1.12h-4.26v3.27h4.03v1.11Z"/>
</svg>